{"title":"Playing.For.Time.1980.DVDRip.XViD-SPRiNTER","uid":5822831,"size":1468997349,"categoryP":"video","categoryS":"movies","magnet":"?xt=urn:btih:bc4a37c36c586ded92d2fe921041b74642f6bc45&amp;dn=Playing.For.Time.1980.DVDRip.XViD-SPRiNTER&amp;tr=udp%3A%2F%2Ftracker.openbittorrent.com%3A80&amp;tr=udp%3A%2F%2Fopen.demonii.com%3A1337&amp;tr=udp%3A%2F%2Ftracker.coppersurfer.tk%3A6969&amp;tr=udp%3A%2F%2Fexodus.desync.com%3A6969","seeders":1,"leechers":0,"uploader":"TvTeam","files":5,"time":1284124354,"description":". \n  &lt;a href=&quot;\nhttp://www.torrentday.com/&quot; rel=&quot;nofollow&quot; target=&quot;_NEW&quot;&gt;\nhttp://www.torrentday.com/&lt;/a&gt;        :     The Hottest Private Tracker On The Net!!!\n\n\n               www . TorrentDay . Com \n(((((((((((((= Enjoy No RAR releases =))))))))))))))))))))\n\n\n...................................NFO:....................................\n\n.\n                                                     \n                                                   \n                                                         \n                                                          \n                                                           \n                                                          \n                                                          \n                                                          \n                                                           \n                                                         \n                                                          \n                                                        \n                                                      \n                                     \n                                                 \n                                                   \n                                             \n                                              \n                                                     \n                                                      \n                                                      \n                                                      \n                                                    \n                                                     \n                                                   \n                                                     \n                                                     \n                                                      \n                                                     \n                                                      \n                                                    \n                 ARTiCHOKE                        \n                                                \n                      \n                                                        \n                                                      \n                                                      \n                                               \n                                          \n                                                   \n                                            \n                                                    \n                                                       \n                                                        \n                                                      \n                                                \n                                                        \n                                                 \n                                              \n                                                  \n                                                \n                                                  \n                                        \n\n      \n                                \n      SPRiNTER proudly presents...     \n                                \n      \n \nPlaying.For.Time.1980.DVDRip.XViD-SPRiNTER\nhttp://www.imdb.com/title/tt0081344/\n\n Date: 2010.09\n\n Genre: Drama\n Plot: Female prisoners in a Nazi concentration camp (Auschwitz) are spared from death \n\t in return for performing music for their captors.\n\n Cast:\n\tVanessa Redgrave\t ... \tFania Fenelon\n\tJane Alexander\t... \tAlma Rose\n\tMaud Adams\t... \tMala\n\tChristine Baranski\t... \tOlga\n\tRobin Bartlett\t... \tEtalina\n\tMarisa Berenson\t... \tElzvieta\n\tVerna Bloom\t... \tPaulette\n\tDonna Haley\t... \tKatrina\n\tLenore Harris\t... \tCharlotte\n\n\n      \n                 \n      Release notes     \n                 \n      \n\n\t   \n\n\n      \n           \n     Greetings    \n           \n      \n\n\nNTX aAF FiCO HNR CiNEFiLE AEN HUMANiSM\n\n\n      \n           \n      Details     \n           \n      \n\nFormat                           : AVI\nFormat/Info                      : Audio Video Interleave\nFile size                        : 1.37 GiB\nDuration                         : 2h 28mn\nOverall bit rate                 : 1 317 Kbps\nWriting application              : Nandub v1.0rc2\nWriting library                  : Nandub build 1852/release\n\nVideo\nID                               : 0\nFormat                           : MPEG-4 Visual\nFormat profile                   : AdvancedSimple@L5\nFormat settings, BVOP            : Yes\nFormat settings, QPel            : No\nFormat settings, GMC             : No warppoints\nFormat settings, Matrix          : Default (H.263)\nCodec ID                         : XVID\nCodec ID/Hint                    : XviD\nDuration                         : 2h 28mn\nBit rate                         : 1 185 Kbps\nWidth                            : 512 pixels\nHeight                           : 384 pixels\nDisplay aspect ratio             : 4:3\nFrame rate                       : 23.976 fps\nResolution                       : 24 bits\nColorimetry                      : 4:2:0\nScan type                        : Progressive\nBits/(Pixel*Frame)               : 0.251\nStream size                      : 1.23 GiB (90%)\nWriting library                  : XviD 1.2.1 (UTC 2008-12-04)\n\nAudio\nID                               : 1\nFormat                           : MPEG Audio\nFormat version                   : Version 1\nFormat profile                   : Layer 3\nCodec ID                         : 55\nCodec ID/Hint                    : MP3\nDuration                         : 2h 28mn\nBit rate mode                    : Variable\nBit rate                         : 119 Kbps\nMinimum bit rate                 : 40.0 Kbps\nChannel(s)                       : 2 channels\nSampling rate                    : 48.0 KHz\nResolution                       : 16 bits\nStream size                      : 127 MiB (9%)\nAlignment                        : Aligned on interleaves\nInterleave, duration             : 24 ms (0.58 video frame)\nInterleave, preload duration     : 178 ms\nWriting library                  : LAME3.98r\nEncoding settings                : -m s -V 6 -q 0 -lowpass 15.5 --vbr-new -b 40","torrent":{"xt":"urn:btih:bc4a37c36c586ded92d2fe921041b74642f6bc45","amp;dn":"Playing.For.Time.1980.DVDRip.XViD-SPRiNTER","amp;tr":["udp%3A%2F%2Ftracker.openbittorrent.com%3A80","udp%3A%2F%2Fopen.demonii.com%3A1337","udp%3A%2F%2Ftracker.coppersurfer.tk%3A6969","udp%3A%2F%2Fexodus.desync.com%3A6969"],"infoHash":"bc4a37c36c586ded92d2fe921041b74642f6bc45","infoHashBuffer":{"type":"Buffer","data":[188,74,55,195,108,88,109,237,146,210,254,146,16,65,183,70,66,246,188,69]},"announce":[],"urlList":[]}}